<svg width="24" height="24" viewBox="0 0 24 24" fill="none" xmlns="http://www.w3.org/2000/svg">
<mask id="mask0_63_19" style="mask-type:luminance" maskUnits="userSpaceOnUse" x="0" y="0" width="24" height="24">
<path d="M0 0H24V23.7951H0V0Z" fill="white"/>
</mask>
<g mask="url(#mask0_63_19)">
<path d="M24 11.8975C24 18.4706 18.6297 23.7951 12 23.7951C5.37029 23.7951 0 18.4706 0 11.8975C0 5.32444 5.37029 0 12 0C18.6297 0 24 5.32444 24 11.8975Z" fill="#CED4DA"/>
</g>
<mask id="mask1_63_19" style="mask-type:luminance" maskUnits="userSpaceOnUse" x="2" y="5" width="19" height="19">
<path d="M2.69968 5.12273H20.887V24H2.69968V5.12273Z" fill="white"/>
</mask>
<g mask="url(#mask1_63_19)">
<path d="M16.1044 9.80684C16.1044 12.1665 14.1733 14.0811 11.7933 14.0811C9.41335 14.0811 7.48224 12.1665 7.48224 9.80684C7.48224 7.44398 9.41335 5.52936 11.7933 5.52936C14.1733 5.52936 16.1044 7.44398 16.1044 9.80684ZM11.7933 15.3586C7.69537 15.3586 4.25619 17.5614 3.32616 20.5326C5.493 22.6745 8.48977 24 11.7933 24C15.0969 24 18.0936 22.6745 20.2605 20.5326C19.3305 17.5614 15.8913 15.3586 11.7933 15.3586Z" fill="#212529"/>
</g>
</svg>
